<?xml version="1.0" encoding="UTF-8" standalone="no"?>
<!DOCTYPE svg PUBLIC "-//W3C//DTD SVG 1.1//EN" "http://www.w3.org/Graphics/SVG/1.1/DTD/svg11.dtd">
<svg width="100%" height="100%" viewBox="0 0 417 417" version="1.1" xmlns="http://www.w3.org/2000/svg" xmlns:xlink="http://www.w3.org/1999/xlink" xml:space="preserve" xmlns:serif="http://www.serif.com/" style="fill-rule:evenodd;clip-rule:evenodd;stroke-linejoin:round;stroke-miterlimit:2;">
    <path d="M368.495,312.393C369.347,319.514 317.207,343.264 285.497,343.233C218.915,343.167 156.974,289.803 127.93,290.786C115.112,291.22 34.535,363.543 15.856,336.161C-2.823,308.779 -0.445,156.681 15.856,126.492C31.992,96.609 94.538,154.538 113.662,155.028C133.525,155.536 218.435,89.45 285.749,89.517C355.763,89.586 412.55,146.486 412.481,216.5C412.466,230.966 408.379,250.441 405.544,257.823C404.288,261.091 398.952,260.748 395.468,260.79C350.397,261.34 294.267,246.449 276.907,214.705C277.554,267.832 368.057,308.735 368.495,312.393ZM353.066,166.67C364.477,166.67 373.741,175.934 373.741,187.345C373.741,198.755 364.477,208.019 353.066,208.019C341.656,208.019 332.392,198.755 332.392,187.345C332.392,175.934 341.656,166.67 353.066,166.67Z" style="fill:#f34b1a;"/>
</svg>
