<svg xmlns="http://www.w3.org/2000/svg" width="325" height="325" fill="none" xmlns:v="https://vecta.io/nano"><path d="M255.131 206.971c.109 2.052-1.026 4.233-3.54 6.44-2.503 2.197-6.244 4.298-10.995 6.167-9.492 3.733-22.798 6.453-37.658 7.241s-28.379-.51-38.212-3.219c-4.922-1.355-8.865-3.049-11.586-4.97-2.733-1.928-4.092-3.976-4.201-6.029s1.026-4.233 3.54-6.439c2.503-2.198 6.244-4.299 10.995-6.167 9.492-3.734 22.798-6.454 37.658-7.242s28.379.51 38.212 3.219c4.922 1.356 8.864 3.05 11.586 4.97 2.733 1.928 4.092 3.976 4.201 6.029zM74.032 158.669l3.603-33.067L204.9 97.613l20.522 35.893-151.39 25.164z" fill="#d83a3a" stroke="#000" stroke-width="2"/><path stroke="#000" d="M186.735 109.008l12.746 26.554m-42.486-21.244l12.746 26.555m-40.363-21.244l12.746 26.554m-40.362-21.243l12.746 26.554"/><mask id="A" fill="#fff"><path fill-rule="evenodd" d="M189.471 215.396c79.487 0 132.771-36.519 132.771-62.623s-58.064-31.865-137.551-31.865c-56.345 0-102.725 15.989-124.956 30.785l-32.717-18.889c-11.914-6.879-26.38 3.491-23.691 16.983l2.829 14.198c.411 2.065.411 4.19 0 6.254l-2.829 14.198c-2.689 13.492 11.777 23.862 23.691 16.983l28.158-16.257c20.814 17.688 73.093 30.233 134.295 30.233z"/></mask><path fill-rule="evenodd" d="M189.471 215.396c79.487 0 132.771-36.519 132.771-62.623s-58.064-31.865-137.551-31.865c-56.345 0-102.725 15.989-124.956 30.785l-32.717-18.889c-11.914-6.879-26.38 3.491-23.691 16.983l2.829 14.198c.411 2.065.411 4.19 0 6.254l-2.829 14.198c-2.689 13.492 11.777 23.862 23.691 16.983l28.158-16.257c20.814 17.688 73.093 30.233 134.295 30.233z" fill="#d83a3a"/><path d="M59.735 151.693l-1 1.732 1.075.621 1.033-.688-1.108-1.665zm-32.717-18.889l1-1.732h0l-1 1.732zM3.326 149.787l1.961-.391-1.961.391zm2.829 14.198l-1.961.391h0l1.961-.391zm0 6.254l1.961.391h0l-1.961-.391zm-2.829 14.198l-1.961-.391 1.961.391zm23.691 16.983l1 1.732h0l-1-1.732zm28.158-16.257l1.295-1.524-1.074-.913-1.221.705 1 1.732zm265.066-32.39c0 5.856-3.006 12.58-9.07 19.477-6.04 6.871-14.975 13.745-26.448 19.859-22.939 12.223-55.803 21.287-95.253 21.287v4c40.037 0 73.558-9.195 97.134-21.757 11.783-6.279 21.137-13.429 27.571-20.748 6.412-7.292 10.066-14.922 10.066-22.118h-4zm-135.551-29.865c39.739 0 73.958 1.443 98.205 6.107 12.14 2.335 21.593 5.445 27.966 9.458 6.314 3.978 9.38 8.677 9.38 14.3h4c0-7.43-4.192-13.24-11.249-17.684-6.998-4.409-17.028-7.634-29.341-10.002-24.656-4.742-59.213-6.179-98.961-6.179v4zm-123.848 30.45c21.843-14.537 67.819-30.45 123.848-30.45v-4c-56.66 0-103.445 16.066-126.064 31.12l2.216 3.33zm-34.825-18.822l32.717 18.889 2-3.464-32.717-18.889-2 3.464zm-20.73 14.86c-2.352-11.805 10.305-20.879 20.73-14.86l2-3.464c-13.404-7.739-29.678 3.927-26.653 19.106l3.923-.782zm2.829 14.199l-2.829-14.199-3.923.782 2.829 14.198 3.923-.781zm0 7.035a18 18 0 0 0 0-7.035l-3.923.781a14 14 0 0 1 0 5.472l3.923.782zm-2.829 14.198l2.829-14.198-3.923-.782-2.829 14.198 3.923.782zm20.73 14.86c-10.425 6.019-23.083-3.054-20.73-14.86l-3.923-.782c-3.025 15.179 13.249 26.845 26.653 19.106l-2-3.464zm28.158-16.257l-28.158 16.257 2 3.464 28.158-16.257-2-3.464zm135.295 29.965c-30.473 0-58.691-3.124-81.846-8.433-23.222-5.324-41.117-12.794-51.154-21.324l-2.59 3.048c10.776 9.158 29.429 16.805 52.85 22.175 23.489 5.386 52.011 8.534 82.74 8.534v-4z" fill="#000" mask="url(#A)"/><path d="M305.247 177.734s-6.904 1.062-9.028 0m-30.814-39.94c-8.195 21.344-6.175 31.365 9.559 45.673m-.52-36.005s14.34 9.028 20.182 0m-85.505-3.718c-12.746 4.78-14.87 13.277 0 17.526m22.587 7.435c-12.746 4.78-14.871 13.277 0 17.526m-39.301-14.339c-12.746 4.78-14.87 13.277 0 17.526m-24.43-33.459c-12.746 4.78-14.87 13.277 0 17.526m-26.554-.531c-12.746 4.78-14.87 13.277 0 17.526m-16.994-39.832c-12.746 4.78-14.871 13.278 0 17.526m-23.368.531c-12.746 4.78-14.87 13.277 0 17.526m-79.946-37.707l28.147 13.277m-28.147 26.023l28.147-15.401m-28.147-4.78h28.147" stroke="#000"/></svg>