<svg width="301" height="129" viewBox="0 0 301 129" fill="none" xmlns="http://www.w3.org/2000/svg">
<path d="M236.931 106.362C237.032 108.269 235.978 110.306 233.618 112.378C231.268 114.44 227.753 116.415 223.283 118.173C214.354 121.685 201.834 124.245 187.848 124.987C173.862 125.728 161.141 124.506 151.891 121.958C147.261 120.683 143.556 119.091 141.001 117.288C138.435 115.477 137.172 113.563 137.071 111.657C136.97 109.75 138.024 107.713 140.384 105.641C142.733 103.579 146.249 101.603 150.719 99.8453C159.647 96.3335 172.168 93.7733 186.154 93.0317C200.14 92.2902 212.861 93.5122 222.111 96.0601C226.741 97.3355 230.446 98.9281 233 100.73C235.566 102.541 236.83 104.455 236.931 106.362Z" fill="#D83A3A" stroke="black" stroke-width="2"/>
<path d="M66.5562 60.8132L69.9354 29.8009L189.669 3.46751L208.926 37.149L66.5562 60.8132Z" fill="#D83A3A" stroke="black" stroke-width="2"/>
<line x1="172.623" y1="14.1166" x2="184.623" y2="39.1166" stroke="black"/>
<line x1="144.623" y1="19.1166" x2="156.623" y2="44.1166" stroke="black"/>
<line x1="118.623" y1="24.1166" x2="130.623" y2="49.1166" stroke="black"/>
<line x1="92.623" y1="29.1166" x2="104.623" y2="54.1166" stroke="black"/>
<mask id="path-7-inside-1_2_51" fill="white">
<path fill-rule="evenodd" clip-rule="evenodd" d="M175.172 114.291C250.007 114.291 300.172 79.9096 300.172 55.3329C300.172 30.7563 245.507 25.3329 170.672 25.3329C117.625 25.3329 73.9589 40.3865 53.0292 54.3166L24.0177 37.5668C12.1033 30.688 -2.36229 41.0577 0.32621 54.5499L2.54924 65.7062C2.96055 67.7704 2.96055 69.8955 2.54924 71.9597L0.326206 83.116C-2.3623 96.6082 12.1034 106.978 24.0177 100.099L48.737 85.8274C68.3327 102.48 117.552 114.291 175.172 114.291Z"/>
</mask>
<path fill-rule="evenodd" clip-rule="evenodd" d="M175.172 114.291C250.007 114.291 300.172 79.9096 300.172 55.3329C300.172 30.7563 245.507 25.3329 170.672 25.3329C117.625 25.3329 73.9589 40.3865 53.0292 54.3166L24.0177 37.5668C12.1033 30.688 -2.36229 41.0577 0.32621 54.5499L2.54924 65.7062C2.96055 67.7704 2.96055 69.8955 2.54924 71.9597L0.326206 83.116C-2.3623 96.6082 12.1034 106.978 24.0177 100.099L48.737 85.8274C68.3327 102.48 117.552 114.291 175.172 114.291Z" fill="#D83A3A"/>
<path d="M53.0292 54.3166L52.0292 56.0486L53.1041 56.6692L54.1374 55.9815L53.0292 54.3166ZM24.0177 37.5668L23.0177 39.2988L23.0177 39.2988L24.0177 37.5668ZM0.32621 54.5499L-1.63523 54.9408L0.32621 54.5499ZM2.54924 65.7062L0.587796 66.0971L0.587797 66.0971L2.54924 65.7062ZM2.54924 71.9597L4.51067 72.3505L4.51067 72.3505L2.54924 71.9597ZM0.326206 83.116L2.28765 83.5068L2.28765 83.5068L0.326206 83.116ZM24.0177 100.099L25.0177 101.831L25.0177 101.831L24.0177 100.099ZM48.737 85.8274L50.0321 84.3034L48.9579 83.3905L47.737 84.0953L48.737 85.8274ZM298.172 55.3329C298.172 60.8069 295.361 67.1114 289.663 73.5929C283.987 80.0484 275.588 86.5122 264.795 92.2633C243.217 103.761 212.296 112.291 175.172 112.291V116.291C212.883 116.291 244.462 107.631 266.676 95.7934C277.779 89.8771 286.598 83.1373 292.667 76.234C298.713 69.3568 302.172 62.1473 302.172 55.3329H298.172ZM170.672 27.3329C208.085 27.3329 240.291 28.6921 263.107 33.0807C274.531 35.278 283.415 38.2023 289.396 41.9694C295.319 45.7003 298.172 50.0923 298.172 55.3329H302.172C302.172 48.2852 298.193 42.7831 291.527 38.5849C284.92 34.423 275.46 31.3833 263.863 29.1527C240.638 24.6854 208.094 23.3329 170.672 23.3329V27.3329ZM54.1374 55.9815C74.6787 42.3099 117.941 27.3329 170.672 27.3329V23.3329C117.31 23.3329 73.2391 38.4631 51.9211 52.6516L54.1374 55.9815ZM23.0177 39.2988L52.0292 56.0486L54.0292 52.5845L25.0177 35.8347L23.0177 39.2988ZM2.28765 54.1591C-0.064792 42.3534 12.5927 33.2799 23.0177 39.2988L25.0177 35.8347C11.614 28.0961 -4.65979 39.762 -1.63523 54.9408L2.28765 54.1591ZM4.51067 65.3154L2.28765 54.1591L-1.63523 54.9408L0.587796 66.0971L4.51067 65.3154ZM4.51067 72.3505C4.97341 70.0283 4.97341 67.6376 4.51067 65.3154L0.587797 66.0971C0.947698 67.9032 0.947699 69.7627 0.587796 71.5688L4.51067 72.3505ZM2.28765 83.5068L4.51067 72.3505L0.587796 71.5688L-1.63523 82.7251L2.28765 83.5068ZM23.0177 98.367C12.5927 104.386 -0.0647958 95.3125 2.28765 83.5068L-1.63523 82.7251C-4.6598 97.9039 11.6141 109.57 25.0177 101.831L23.0177 98.367ZM47.737 84.0953L23.0177 98.367L25.0177 101.831L49.737 87.5594L47.737 84.0953ZM175.172 112.291C146.49 112.291 119.932 109.351 98.1426 104.355C76.2852 99.3431 59.4605 92.3157 50.0321 84.3034L47.4419 87.3514C57.6092 95.9917 75.1922 103.196 97.2486 108.253C119.372 113.326 146.234 116.291 175.172 116.291V112.291Z" fill="black" mask="url(#path-7-inside-1_2_51)"/>
<path d="M284.172 78.8329C284.172 78.8329 277.672 79.8329 275.672 78.8329" stroke="black"/>
<path d="M246.662 41.2305C238.947 61.3257 240.849 70.7604 255.662 84.2305" stroke="black"/>
<path d="M255.172 50.3329C255.172 50.3329 268.672 58.8329 274.172 50.3329" stroke="black"/>
<path d="M193.672 46.8329C181.672 51.3329 179.672 59.3329 193.672 63.3329" stroke="black"/>
<path d="M214.937 70.3329C202.937 74.8329 200.937 82.8329 214.937 86.8329" stroke="black"/>
<path d="M177.937 73.3329C165.937 77.8329 163.937 85.8329 177.937 89.8329" stroke="black"/>
<path d="M154.937 58.3329C142.937 62.8329 140.937 70.8329 154.937 74.8329" stroke="black"/>
<path d="M129.937 74.3329C117.937 78.8329 115.937 86.8329 129.937 90.8329" stroke="black"/>
<path d="M113.937 53.3329C101.937 57.8329 99.9366 65.8329 113.937 69.8329" stroke="black"/>
<path d="M91.9366 70.3329C79.9366 74.8329 77.9366 82.8329 91.9366 86.8329" stroke="black"/>
<path d="M16.6695 51.3329L43.1695 63.8329M16.6695 88.3329L43.1695 73.8329M16.6695 69.3329L43.1695 69.3329" stroke="black"/>
</svg>
