<svg width="325" height="325" viewBox="0 0 325 325" fill="none" xmlns="http://www.w3.org/2000/svg">
<path d="M255.131 206.971C255.24 209.023 254.105 211.204 251.591 213.411C249.088 215.608 245.347 217.709 240.596 219.578C231.104 223.311 217.798 226.031 202.938 226.819C188.078 227.607 174.559 226.309 164.726 223.6C159.804 222.245 155.861 220.551 153.14 218.63C150.407 216.702 149.048 214.654 148.939 212.601C148.83 210.549 149.965 208.368 152.479 206.162C154.982 203.964 158.723 201.863 163.474 199.995C172.966 196.261 186.272 193.541 201.132 192.753C215.992 191.965 229.511 193.263 239.344 195.972C244.266 197.328 248.208 199.022 250.93 200.942C253.663 202.87 255.022 204.918 255.131 206.971Z" fill="#D83A3A" stroke="black" stroke-width="2"/>
<path d="M74.032 158.669L77.635 125.602L204.9 97.6125L225.422 133.505L74.032 158.669Z" fill="#D83A3A" stroke="black" stroke-width="2"/>
<line x1="186.735" y1="109.008" x2="199.481" y2="135.562" stroke="black"/>
<line x1="156.995" y1="114.318" x2="169.741" y2="140.873" stroke="black"/>
<line x1="129.378" y1="119.629" x2="142.124" y2="146.183" stroke="black"/>
<line x1="101.762" y1="124.94" x2="114.508" y2="151.494" stroke="black"/>
<mask id="path-7-inside-1_3_4" fill="white">
<path fill-rule="evenodd" clip-rule="evenodd" d="M189.471 215.396C268.958 215.396 322.242 178.877 322.242 152.773C322.242 126.668 264.178 120.908 184.691 120.908C128.346 120.908 81.9656 136.897 59.7348 151.693L27.0177 132.804C15.1034 125.925 0.637703 136.295 3.32621 149.787L6.15536 163.985C6.56668 166.05 6.56668 168.175 6.15536 170.239L3.32621 184.437C0.637702 197.929 15.1034 208.299 27.0177 201.42L55.1758 185.163C75.9897 202.851 128.269 215.396 189.471 215.396Z"/>
</mask>
<path fill-rule="evenodd" clip-rule="evenodd" d="M189.471 215.396C268.958 215.396 322.242 178.877 322.242 152.773C322.242 126.668 264.178 120.908 184.691 120.908C128.346 120.908 81.9656 136.897 59.7348 151.693L27.0177 132.804C15.1034 125.925 0.637703 136.295 3.32621 149.787L6.15536 163.985C6.56668 166.05 6.56668 168.175 6.15536 170.239L3.32621 184.437C0.637702 197.929 15.1034 208.299 27.0177 201.42L55.1758 185.163C75.9897 202.851 128.269 215.396 189.471 215.396Z" fill="#D83A3A"/>
<path d="M59.7348 151.693L58.7348 153.425L59.8097 154.046L60.8429 153.358L59.7348 151.693ZM27.0177 132.804L28.0177 131.072L28.0177 131.072L27.0177 132.804ZM3.32621 149.787L5.28765 149.396L3.32621 149.787ZM6.15536 163.985L4.19392 164.376L4.19392 164.376L6.15536 163.985ZM6.15536 170.239L8.1168 170.63L8.1168 170.63L6.15536 170.239ZM3.32621 184.437L1.36477 184.046L3.32621 184.437ZM27.0177 201.42L28.0177 203.152L28.0177 203.152L27.0177 201.42ZM55.1758 185.163L56.4709 183.639L55.3966 182.726L54.1758 183.431L55.1758 185.163ZM320.242 152.773C320.242 158.629 317.236 165.353 311.172 172.25C305.132 179.121 296.197 185.995 284.724 192.109C261.785 204.332 228.921 213.396 189.471 213.396V217.396C229.508 217.396 263.029 208.201 286.605 195.639C298.388 189.36 307.742 182.21 314.176 174.891C320.588 167.599 324.242 159.969 324.242 152.773H320.242ZM184.691 122.908C224.43 122.908 258.649 124.351 282.896 129.015C295.036 131.35 304.489 134.46 310.862 138.473C317.176 142.451 320.242 147.15 320.242 152.773H324.242C324.242 145.343 320.05 139.533 312.993 135.089C305.995 130.68 295.965 127.455 283.652 125.087C258.996 120.345 224.439 118.908 184.691 118.908V122.908ZM60.8429 153.358C82.6854 138.821 128.662 122.908 184.691 122.908V118.908C128.031 118.908 81.2458 134.974 58.6266 150.028L60.8429 153.358ZM26.0177 134.536L58.7348 153.425L60.7348 149.961L28.0177 131.072L26.0177 134.536ZM5.28765 149.396C2.9352 137.591 15.5926 128.517 26.0177 134.536L28.0177 131.072C14.6141 123.333 -1.6598 134.999 1.36477 150.178L5.28765 149.396ZM8.1168 163.595L5.28765 149.396L1.36477 150.178L4.19392 164.376L8.1168 163.595ZM8.1168 170.63C8.57953 168.307 8.57953 165.917 8.1168 163.595L4.19392 164.376C4.55383 166.182 4.55383 168.042 4.19392 169.848L8.1168 170.63ZM5.28765 184.828L8.1168 170.63L4.19392 169.848L1.36477 184.046L5.28765 184.828ZM26.0177 199.688C15.5926 205.707 2.9352 196.634 5.28765 184.828L1.36477 184.046C-1.6598 199.225 14.6141 210.891 28.0177 203.152L26.0177 199.688ZM54.1758 183.431L26.0177 199.688L28.0177 203.152L56.1758 186.895L54.1758 183.431ZM189.471 213.396C158.998 213.396 130.78 210.272 107.625 204.963C84.4026 199.639 66.5083 192.169 56.4709 183.639L53.8806 186.687C64.6571 195.845 83.3095 203.492 106.731 208.862C130.22 214.248 158.742 217.396 189.471 217.396V213.396Z" fill="black" mask="url(#path-7-inside-1_3_4)"/>
<path d="M305.247 177.734C305.247 177.734 298.343 178.796 296.219 177.734" stroke="black"/>
<path d="M265.405 137.794C257.21 159.138 259.23 169.159 274.964 183.467" stroke="black"/>
<path d="M274.444 147.462C274.444 147.462 288.784 156.49 294.626 147.462" stroke="black"/>
<path d="M209.121 143.744C196.375 148.524 194.251 157.021 209.121 161.27" stroke="black"/>
<path d="M231.708 168.705C218.962 173.485 216.837 181.982 231.708 186.231" stroke="black"/>
<path d="M192.407 171.892C179.661 176.672 177.537 185.169 192.407 189.418" stroke="black"/>
<path d="M167.977 155.959C155.231 160.739 153.107 169.236 167.977 173.485" stroke="black"/>
<path d="M141.423 172.954C128.677 177.734 126.553 186.231 141.423 190.48" stroke="black"/>
<path d="M124.429 150.648C111.683 155.428 109.558 163.926 124.429 168.174" stroke="black"/>
<path d="M101.061 168.705C88.315 173.485 86.1906 181.982 101.061 186.231" stroke="black"/>
<path d="M21.1146 148.524L49.262 161.801M21.1146 187.824L49.262 172.423M21.1146 167.643L49.262 167.643" stroke="black"/>
</svg>
